<?xml version="1.0" encoding="UTF-8"?>
<svg version="1.1" viewBox="0 0 2000 2000" width="1280" height="1280" xmlns="http://www.w3.org/2000/svg">
<path transform="translate(1619,625)" d="m0 0h6l-1 6-7 14-13 30-8 23-2 2-20 3-29 6-6 1h-14l1-8 5-17 1-2-21 3-16 1-3 17-7 14 18 4 17 6 10 7 6 8 5 10 13 40 2 17v20l-2 26-3 18-5 5-24 6-13 3-1-1-3-17-4-13-8-16-8-11-8-7-15-8-10-3h-18l-13 4-10 5-11 8-7 7-8 13-7 17-2 10-1 10v29l-7 3-29 7-44 9-59 13-36 7-35 6-31 6-68 15-28 6-16 4h-5l1-8 5-20v-25l-2-10-5-14-9-15-9-10-14-10-9-4-9-2-10-1h-9l-16 2-12 4-11 7-13 11-7 12-8 20-3 11-1 8v27l3 16 6 16 5 10v3l-16 4-49 11-34 7-46 8-29 6-32 8-52 11-38 9-31 7-35 10-30 7-23 4-25 3-8 2 1-5 9-3 10-7 15-8 16-8 20-8 12-4 4-1v-4l-15-3-26-3-15-4-16-8-3-2v-2h-2l3-11 5-19 3-5 1-10-4-21-2-16v-25l3-17 8-22 9-16 8-10 16-16 15-11 27-14 19-8 21-7 36-9 28-6 70-14 49-8 12-3 15-13 13-9 19-14 27-18 20-13 25-12 25-9 29-8 36-8 44-7 57-8 48-6 24-2h54l30 3 30 5 19 6 25 8 23 9 6-1 18-5 40-8 56-9 58-8 19-3 6-1 2-10 7-2 33-6zm-443 56-25 2-77 10-32 5-44 9-12 2v1h25l33-3 18-1 46-1h17l-5 5-8 7-7 7-7 8-14 15-9 11-12 14-10 15v2l-47 1-41 3-33 4-20 4-36 9-28 11-21 5-33 6-68 17-14 3 3-5 7-7 15-9 18-5 62-10 29-5 29-6 29-5 8-2 2-3h-53l-67 10-66 12-29 6-37 7-33 7-53 15-24 9-13 7-14 9-4 4v2h46l106-2 37-3 47-5 64-4 18-1 1 3-5 2-6 5-11 16-7 8-15 2-20 2-50 3-38 5-11 1-35 1h-87l-57-1-3 8-3 14-1 17 4 30 4 19v11l-6 9-1 6 8 2 25 2h41l17-1 6-1-1-2-5-2-2 1v-2l-2-2h42l-2 4-7 2v1h69l71-5 25-3 35-6 6-3 3-7 12-42 11-27 7-21 7-14 14-21 6-8 11-10 16-10 13-5 11-3 8-1h23l17 3 15 6 12 7 19 13 8 8 11 14 5 5h3l1-8 2-5-1-7-6-11-7-11-9-10-11-10-10-7-11-5 15-2 42-9 8-1 5 5 7 9 3 7 15-1 115-22 35-7 40-10 20-4 27-3-8 24-9 25-6 21-8 18-6 10-6 3-54 10-52 13-31 9-44 14-4 1 1 2 38-5 54-8 45-9 36-7 44-7 8-3 10-20 8-13 12-22 12-19 10-15 7-7 17-10 12-4 15-2h24l18 3 16 6 16 10 1-2-1-12 3 1 3 3h2l2 11 1 7-1 2 11 22h1l-2-34-3-14-8-27-4-9-17-3-36-7-37-7-28-6-30-11-20-7-25-7-18-7-24-7-27-6-30-4-35-2zm277 11-24 4-33 5 1 2 42 10 5 2 5-1 9-20v-2z" fill="#FEFEFE"/>
<path transform="translate(599,1116)" d="m0 0h13l13 4 9 7 5 8 1 5v10l-2 23-4 29-7 40-4 9-7 9-11 8-12 5 2 4 8 9 11 8 8 8 9 11 17 17 14 16 8 7 18 18 11 9 10 10 7 8 11 12 11 11 8 7 4 4v2h2l6 7 2 1v2l4 2 9 9 12 9 7 7 5 6 7 5 2 4-2 1-22-9-28-7-39-7-19-2h-17l-5-4-8-12-11-13-7-7-7-8-11-12-10-14-15-16-47-47-11-9-18-18v-2h-2l-7-8-7-7-4 23-6 48-4 27-3 25-2 2-18 3-31 8-7 2 5-19 4-29 7-55 6-61 5-45 2-14v-8l-9-10-12-14-9-11-7-6 2-2 26-4 70-15 25-5 27-5 12-3zm-24 61-34 7-19 5-2 5-4 29v10l10-1 41-7 11-3 2-4 4-30 1-11z" fill="#FEFEFE"/>
<path transform="translate(1640,1183)" d="m0 0h7l-2 10-5 21-3 17-3 2-41 8-32 6-33 8-37 8-51 12-43 10-24 5-23 4-40 10-39 9-51 11-37 9-40 9-41 10-40 9-39 9-44 8-37 8-38 9-31 7-25 7-45 10-11 3-3 2-10-9-10-10-8-7-12-11-2-1v-3l21-6 46-9 57-13 48-12 40-9 90-21 47-10 45-10 51-10 78-18 99-22 32-8 66-15 83-17 61-14z" fill="#FEFEFE"/>
<path transform="translate(1330,957)" d="m0 0h3l-2 14-9 60-6 37-5 40-8 63-6 46-3 5-27 7-9 4-4-2-8-19-10-23-15-40-11-26-2-1-1-5-1 13-6 49-7 50-1 19-6 2-26 5-18 5-6 2 1-11 7-61 4-27 11-86 7-41 1-13-3-9-6-13-1-6 5-2 23-4 17-4 9-3 5 11 19 44 13 30 9 27 1 4 3-12 9-56 7-46v-9l-1-4 1-2 36-8z" fill="#FEFEFE"/>
<path transform="translate(1507,921)" d="m0 0h6l-2 12-10 36-3 10-4 3-37 8-53 12-4 1-2 16-9 63-4 33-3 19v8l2 2 13-2 32-7 3-1 3-10 3-20 1-11-18 5-6 4-3-1 3-5 2-9 1-13-2-18-2-10 10-2 38-6 37-8 4-1-1 10-8 45-5 30-4 34-2 36v3h-2l-1-2-12 1-40 8-61 14h-18l-6-3-5-5-5-6-5-11-1-6v-9l5-40 6-44 5-39 4-31 3-20 4-13 6-11 10-10 13-8 15-5 56-13 19-5 31-7z" fill="#FEFEFE"/>
<path transform="translate(1146,996)" d="m0 0 3 1-3 9-5 16-5 31-1 2-76 17h-4l-1 16-5 34 27-6 42-9 8-3 3-1-1 8-9 41-2 11-7 2-56 12-13 2-1 19-4 22-1 2 21-5 39-7 27-4 5-3 1 5-7 40-3 15-2 2-55 11-51 12-28 5-6 2h-4l1-4 1-1 8-54 6-48 6-38 5-38 6-52v-18l-1-4v-8l9-3 32-7 43-10 48-11 8-2z" fill="#FEFEFE"/>
<path transform="translate(1675,883)" d="m0 0h5l-6 15-7 25-5 21-9 3-41 9-26 4h-2l-1 12-6 35 32-8 30-7 16-5 3 1-3 11-10 34-4 14-14 4-48 10-9 1-2 22-4 24 12-3 75-17h5l-1 6-11 51-2 2-34 7-54 12-30 7-16 5-7 2 3-10 4-22 7-58 6-45 6-42 6-43 1-4v-11l-6-10-8-10-1-6 43-10 24-6 54-12z" fill="#fff"/>
<path transform="translate(994,1030)" d="m0 0h2l-1 5-6 11-10 31-7 20-10 35-6 20-8 30-7 18-8 27-8 23-11 35-5 17-2 7-1 1-13 2-29 8-10 4-3-1-6-35-4-26-6-44-7-45-9-57-6-28-5-16 1-3 16-4 37-8 8-1 5 49 3 38 7 63v4h2l1-7 8-30 14-45 12-36 13-44 2-5 6-2 44-9z" fill="#FEFEFE"/>
<path transform="translate(798,1071)" d="m0 0h3l-1 7-5 19-3 21-1 11-7 3-36 8-26 6h-4l-1 11-5 35 16-2 38-8 20-5 5-1v4l-6 13-7 22-3 20-9 3-43 9-12 2-2 1-3 24-5 21 58-11 30-7 6-2 1 4-3 6-7 37-2 14-2 2-52 11-16 5-3 1-6-9-7-9-9-10-10-9-12-13-11-11-7-4-1-2h2l2-22 6-54 9-70v-10l-6-11-7-9-6-5v-3h8l31-6 39-10 38-9 28-6z" fill="#FEFEFE"/>
<path transform="translate(544,935)" d="m0 0h116l4 2 9 20 11 25 8 20 1 9-6 4-19 5-20 2h-62l-17-1-44-1-5-5-4-11-7-31-5-22-1-14 1-1z" fill="#FEFEFE"/>
<path transform="translate(1181,707)" d="m0 0h34l36 3 19 3 20 6 40 14 27 11 3 2v3l-5 1-86 13-40 6-49 8-51 8-32 6h-4v-2h2l2-4 9-10 18-24 6-10 11-13 12-12 10-6 7-2z" fill="#FEFEFE"/>
<path transform="translate(943,891)" d="m0 0h16l11 4 11 7 10 10 8 13 4 13v17l-5 19-4 9-7 11-5 3-19 5-35 8-7 2-5-5-8-9-6-12-3-11-1-6v-21l5-19 7-13 11-12 8-7 10-5z" fill="#FEFEFE"/>
<path transform="translate(809,926)" d="m0 0h5l-1 10-6 28-7 24-5 11-1 1-46 3-20 2-8 1v-9l-4-11-13-27-7-11v-4l23-4 48-7 32-5z" fill="#FEFEFE"/>
<path transform="translate(1442,831)" d="m0 0 13 2 10 6 8 7 7 10 4 8 2 7v19l-4 4-25 4-34 8-20 6h-5l-2-10v-18l3-12 7-16 9-11 9-7 12-6z" fill="#FEFEFE"/>
<path transform="translate(441,1116)" d="m0 0" fill="#fff"/>
<path transform="translate(1516,816)" d="m0 0" fill="#fff"/>
</svg>
